<?xml version="1.0" encoding="UTF-8"?> <svg xmlns="http://www.w3.org/2000/svg" xmlns:xlink="http://www.w3.org/1999/xlink" id="Group_2" data-name="Group 2" width="641.022" height="307.988" viewBox="0 0 641.022 307.988"><defs><clipPath id="clip-path"><rect id="Rectangle_1" data-name="Rectangle 1" width="641.022" height="307.988" fill="none"></rect></clipPath></defs><g id="Group_1" data-name="Group 1" clip-path="url(#clip-path)"><path id="Path_1" data-name="Path 1" d="M189.1,22.065a5.2,5.2,0,0,1,1.325,1.123,4.8,4.8,0,0,1,1.324-1.123l18.839-10.891L191.724.285a3.166,3.166,0,0,0-2.626,0L170.236,11.174Z" transform="translate(129.428)" fill="#00b2a8"></path><path id="Path_2" data-name="Path 2" d="M176.621,7.65,157.647,18.608a3.055,3.055,0,0,0-1.3,2.244V42.924L175.3,31.989a4.49,4.49,0,0,1,1.685-.583,5.026,5.026,0,0,1-.359-1.751Z" transform="translate(118.866 5.816)" fill="#6ad6cc"></path><path id="Path_3" data-name="Path 3" d="M188.358,18.608,169.407,7.65V29.678a3.092,3.092,0,0,0,1.3,2.244L189.684,42.88V20.875a3.076,3.076,0,0,0-1.325-2.244" transform="translate(128.798 5.816)" fill="#00b2a8"></path><path id="Path_4" data-name="Path 4" d="M195.352,31.428a4.994,4.994,0,0,1,1.662.584l18.951,10.935V20.875a3.074,3.074,0,0,0-1.325-2.246L195.688,7.65V29.676a4.924,4.924,0,0,1-.336,1.751" transform="translate(148.523 5.816)" fill="#00b2a8"></path><path id="Path_5" data-name="Path 5" d="M182.481,20.875V42.9l18.951-10.956a3.085,3.085,0,0,0,1.326-2.246V7.65L183.694,18.608a2.645,2.645,0,0,0-1.2,2.082Z" transform="translate(138.738 5.816)" fill="#6ad6cc"></path><path id="Path_6" data-name="Path 6" d="M178.63,22.952a3.166,3.166,0,0,0-2.626,0L157.186,33.8l18.795,10.868a3.351,3.351,0,0,0,2.626,0L197.424,33.8Z" transform="translate(119.506 17.233)" fill="#00b2a8"></path><path id="Path_7" data-name="Path 7" d="M204.78,22.952a3.166,3.166,0,0,0-2.626,0L183.336,33.8l18.817,10.868a3.351,3.351,0,0,0,2.626,0L223.6,33.8Z" transform="translate(139.388 17.233)" fill="#00b2a8"></path><path id="Path_8" data-name="Path 8" d="M363.021,105.271a8.349,8.349,0,1,0,8.349,8.349,8.35,8.35,0,0,0-8.349-8.349m0,15.346a7,7,0,1,1,7-7,7,7,0,0,1-7,7" transform="translate(269.652 80.036)" fill="#00b2a8"></path><path id="Path_9" data-name="Path 9" d="M361.131,113.163h-2.086v2.989h-1.609v-8.585h4.031c2.526,0,3.232,1.077,3.232,2.735a2.486,2.486,0,0,1-1.889,2.7l1.785,3.149h-1.773Zm.29-1.459c1.077,0,1.621-.289,1.621-1.331,0-1.077-.521-1.357-1.644-1.357h-2.354V111.7Z" transform="translate(271.754 81.782)" fill="#00b2a8"></path><path id="Path_10" data-name="Path 10" d="M0,177.578V108.536a2.925,2.925,0,0,1,3.207-3.205H15.5a4.767,4.767,0,0,1,3.954,1.924l34.734,44.354V108.536a2.925,2.925,0,0,1,3.207-3.205H70a2.925,2.925,0,0,1,3.205,3.205v69.042A2.925,2.925,0,0,1,70,180.784H57.711a4.765,4.765,0,0,1-3.954-1.922L19.023,134.721v42.858a2.925,2.925,0,0,1-3.205,3.206H3.207A2.925,2.925,0,0,1,0,177.578" transform="translate(0 80.082)" fill="#00b2a8"></path><path id="Path_11" data-name="Path 11" d="M46.577,154.814V108.536a2.925,2.925,0,0,1,3.205-3.205H62.395a2.925,2.925,0,0,1,3.205,3.205v46.919c0,6.413,2.565,7.161,6.305,7.161h24.9c3.739,0,6.3-.748,6.3-7.161V108.536a2.925,2.925,0,0,1,3.207-3.205H118.93a2.925,2.925,0,0,1,3.205,3.205v46.278c0,15.283-8.228,25.969-25.327,25.969h-24.9c-17.1,0-25.329-10.687-25.329-25.969" transform="translate(35.412 80.082)" fill="#00b2a8"></path><path id="Path_12" data-name="Path 12" d="M118.216,177.578V123.606H97.8A2.924,2.924,0,0,1,94.6,120.4V108.536a2.924,2.924,0,0,1,3.207-3.205h59.955a2.925,2.925,0,0,1,3.205,3.205V120.4a2.925,2.925,0,0,1-3.205,3.205H137.346v53.972a2.925,2.925,0,0,1-3.207,3.206H121.421a2.925,2.925,0,0,1-3.205-3.206" transform="translate(71.92 80.082)" fill="#00b2a8"></path><path id="Path_13" data-name="Path 13" d="M195.613,161.44l10.794,15.5c1.5,2.244.535,3.848-2.031,3.848H189.948a4.07,4.07,0,0,1-3.848-2.137l-9.405-15.07h-20.52v14a2.925,2.925,0,0,1-3.205,3.207H140.357a2.925,2.925,0,0,1-3.206-3.207v-69.04a2.924,2.924,0,0,1,3.206-3.205h38.8c21.375,0,30.566,10.046,30.566,28.321v2.031c0,12.29-4.061,21.7-14.107,25.757m-39.437-15.818h21.375c8.016,0,13.038-1.068,13.038-10.153v-1.711c0-9.083-4.7-10.259-13.038-10.259H156.175Z" transform="translate(104.275 80.082)" fill="#00b2a8"></path><path id="Path_14" data-name="Path 14" d="M183.628,177.578V108.536a2.925,2.925,0,0,1,3.205-3.205h12.505a2.925,2.925,0,0,1,3.207,3.205v69.042a2.925,2.925,0,0,1-3.207,3.206H186.833a2.925,2.925,0,0,1-3.205-3.206" transform="translate(139.61 80.082)" fill="#00b2a8"></path><path id="Path_15" data-name="Path 15" d="M223.223,177.578V123.606H202.81A2.924,2.924,0,0,1,199.6,120.4V108.536a2.924,2.924,0,0,1,3.207-3.205h59.955a2.925,2.925,0,0,1,3.206,3.205V120.4a2.925,2.925,0,0,1-3.206,3.205H242.353v53.972a2.925,2.925,0,0,1-3.207,3.206H226.428a2.925,2.925,0,0,1-3.205-3.206" transform="translate(151.755 80.082)" fill="#00b2a8"></path><path id="Path_16" data-name="Path 16" d="M242.285,177.578V108.536a2.925,2.925,0,0,1,3.205-3.205H258a2.925,2.925,0,0,1,3.207,3.205v69.042A2.925,2.925,0,0,1,258,180.784H245.49a2.925,2.925,0,0,1-3.205-3.206" transform="translate(184.206 80.082)" fill="#00b2a8"></path><path id="Path_17" data-name="Path 17" d="M258.143,154.814V131.408c0-15.388,8.229-26.077,25.33-26.077H311.58c17.1,0,25.329,10.688,25.329,26.077v23.407c0,15.283-8.229,25.969-25.329,25.969H283.473c-17.1,0-25.33-10.687-25.33-25.969m53.437,7.8c3.741,0,6.307-.748,6.307-7.161V130.767c0-6.518-2.244-7.268-6.307-7.268H283.473c-4.061,0-6.305.75-6.305,7.268v24.688c0,6.413,2.563,7.161,6.305,7.161Z" transform="translate(196.263 80.082)" fill="#00b2a8"></path><path id="Path_18" data-name="Path 18" d="M307.874,177.578V108.536a2.925,2.925,0,0,1,3.206-3.205h12.29a4.768,4.768,0,0,1,3.955,1.924l34.734,44.354V108.536a2.925,2.925,0,0,1,3.207-3.205h12.611a2.925,2.925,0,0,1,3.206,3.205v69.042a2.925,2.925,0,0,1-3.206,3.206H365.585a4.765,4.765,0,0,1-3.954-1.922L326.9,134.721v42.858a2.925,2.925,0,0,1-3.206,3.206H311.079a2.925,2.925,0,0,1-3.206-3.206" transform="translate(234.072 80.082)" fill="#00b2a8"></path><path id="Path_19" data-name="Path 19" d="M134.45,127.75V66.909H108.37a3.3,3.3,0,0,1-3.616-3.614V49.923a3.3,3.3,0,0,1,3.616-3.616h73.406a3.3,3.3,0,0,1,3.614,3.616V63.3a3.3,3.3,0,0,1-3.614,3.614h-25.76V127.75a3.3,3.3,0,0,1-3.614,3.614H138.066a3.3,3.3,0,0,1-3.616-3.614" transform="translate(79.643 35.207)" fill="#00b2a8"></path><path id="Path_20" data-name="Path 20" d="M156.247,102.088V75.7c0-17.349,9.275-29.4,28.552-29.4h31.685c19.275,0,28.554,12.049,28.554,29.4v26.383c0,17.23-9.278,29.275-28.554,29.275H184.8c-19.277,0-28.552-12.046-28.552-29.275m60.237,8.794c4.214,0,7.108-.843,7.108-8.071V74.981c0-7.349-2.53-8.192-7.108-8.192H184.8c-4.58,0-7.11.843-7.11,8.192v27.83c0,7.228,2.894,8.071,7.11,8.071Z" transform="translate(118.792 35.206)" fill="#00b2a8"></path><path id="Path_21" data-name="Path 21" d="M213.312,127.75V49.923a3.3,3.3,0,0,1,3.614-3.616h43.852c23.855,0,33.132,11.326,33.132,31.928v3.492c0,20.6-9.277,31.444-33.132,31.444H234.756V127.75a3.3,3.3,0,0,1-3.614,3.614H216.926a3.3,3.3,0,0,1-3.614-3.614m45.539-34.818c8.435,0,13.614-1.2,13.614-11.444V78.355c0-10.241-4.818-11.565-13.614-11.565H234.756V92.932Z" transform="translate(162.178 35.207)" fill="#00b2a8"></path><path id="Path_22" data-name="Path 22" d="M14.331,178.632a.864.864,0,0,1,.947-1.026H18.79c.632,0,.945.356.986.987.238,2.287,1.3,3.156,3.867,3.156h7.735c3,0,4.063-.75,4.063-3.038,0-2.211-1.026-2.8-3.67-3l-8.8-.671c-6.077-.474-8.483-2.447-8.483-7.655,0-5.325,2.565-8.245,9.43-8.245H31.14c6.235,0,9.036,2.8,9.312,8.365a.864.864,0,0,1-.947,1.026H35.953a.912.912,0,0,1-.986-.988c-.236-2.288-1.3-3.156-3.827-3.156H24c-3.036,0-4.1.711-4.1,3.038,0,2.17,1.026,2.723,3.67,2.92l8.8.671c6,.472,8.523,2.565,8.523,7.733,0,5.327-2.565,8.247-9.469,8.247H23.643c-6.274,0-9.036-2.8-9.312-8.365" transform="translate(10.894 120.992)" fill="#00b2a8"></path><path id="Path_23" data-name="Path 23" d="M31.88,177.408V160.128a.894.894,0,0,1,.988-.988h3.512a.893.893,0,0,1,.984.988v17.478c0,3.394,1.225,4.144,3.867,4.144h8.877c2.644,0,3.829-.75,3.829-4.144V160.128a.894.894,0,0,1,.986-.988h3.55a.894.894,0,0,1,.988.988v17.281c0,5.879-2.841,9.588-9.352,9.588H41.231c-6.548,0-9.351-3.709-9.351-9.588" transform="translate(24.238 120.992)" fill="#00b2a8"></path><path id="Path_24" data-name="Path 24" d="M50.46,186.011V160.126a.894.894,0,0,1,.986-.986H65.769c8.048,0,10.85,3.394,10.85,9.983v.868c0,6.393-2.8,9.826-10.85,9.826H55.945v6.194a.9.9,0,0,1-.988.986H51.446a.894.894,0,0,1-.986-.986m14.874-11.4c4.066,0,5.8-.868,5.8-4.658v-.827c0-3.985-1.656-4.735-5.8-4.735H55.945v10.22Z" transform="translate(38.364 120.992)" fill="#00b2a8"></path><path id="Path_25" data-name="Path 25" d="M67.651,186.01V160.126a.9.9,0,0,1,.988-.987H90.22a.9.9,0,0,1,.988.987V163.4a.9.9,0,0,1-.988.988H73.1v6.077H84.184a.892.892,0,0,1,.986.986v2.88a.894.894,0,0,1-.986.988H73.1v6.43H90.22a.9.9,0,0,1,.988.988v3.274a.9.9,0,0,1-.988.988H68.639a.9.9,0,0,1-.988-.988" transform="translate(51.434 120.991)" fill="#00b2a8"></path><path id="Path_26" data-name="Path 26" d="M103.987,179.144l4.7,6.668c.474.672.158,1.185-.63,1.185h-4.1a1.307,1.307,0,0,1-1.183-.63l-4.3-6.67H88.759v6.312a.9.9,0,0,1-.988.988H84.26a.9.9,0,0,1-.986-.988V160.126a.894.894,0,0,1,.986-.986H98.583c8.089,0,11.167,3.392,11.167,10.062v.59c0,4.816-1.54,8.09-5.763,9.352m.238-9.9c0-4.1-1.776-4.853-6.077-4.853H88.759v10.1h9.389c4.221,0,6.077-.709,6.077-4.735Z" transform="translate(63.312 120.992)" fill="#00b2a8"></path><path id="Path_27" data-name="Path 27" d="M106.248,186.011V160.126a.894.894,0,0,1,.986-.986h14.323c8.048,0,10.85,3.394,10.85,9.983v.868c0,6.393-2.8,9.826-10.85,9.826h-9.824v6.194a.9.9,0,0,1-.988.986h-3.512a.894.894,0,0,1-.986-.986m14.874-11.4c4.066,0,5.8-.868,5.8-4.658v-.827c0-3.985-1.656-4.735-5.8-4.735h-9.389v10.22Z" transform="translate(80.779 120.992)" fill="#00b2a8"></path><path id="Path_28" data-name="Path 28" d="M144.153,179.144l4.7,6.668c.474.672.158,1.185-.63,1.185h-4.1a1.307,1.307,0,0,1-1.183-.63l-4.3-6.67h-9.706v6.312a.9.9,0,0,1-.988.988h-3.512a.9.9,0,0,1-.986-.988V160.126a.894.894,0,0,1,.986-.986h14.323c8.089,0,11.167,3.392,11.167,10.062v.59c0,4.816-1.54,8.09-5.763,9.352m.238-9.9c0-4.1-1.776-4.853-6.076-4.853h-9.389v10.1h9.389c4.221,0,6.076-.709,6.076-4.735Z" transform="translate(93.85 120.992)" fill="#00b2a8"></path><path id="Path_29" data-name="Path 29" d="M140.81,186.01V160.126a.9.9,0,0,1,.988-.987h21.581a.9.9,0,0,1,.988.987V163.4a.9.9,0,0,1-.988.988H146.256v6.077h11.086a.892.892,0,0,1,.986.986v2.88a.894.894,0,0,1-.986.988H146.256v6.43h17.122a.9.9,0,0,1,.988.988v3.274a.9.9,0,0,1-.988.988H141.8a.9.9,0,0,1-.988-.988" transform="translate(107.056 120.991)" fill="#00b2a8"></path><path id="Path_30" data-name="Path 30" d="M156.432,186.01V160.126a.9.9,0,0,1,.988-.987h4.26a1.341,1.341,0,0,1,1.183.671l9.905,16.138,9.865-16.138a1.343,1.343,0,0,1,1.185-.671h4.221a.9.9,0,0,1,.986.987V186.01a.9.9,0,0,1-.986.988h-3.473a.9.9,0,0,1-.986-.988V167.939l-8.562,13.73a1.343,1.343,0,0,1-1.185.672h-2.209a1.343,1.343,0,0,1-1.185-.672l-8.56-13.69V186.01a.9.9,0,0,1-.988.988H157.42a.9.9,0,0,1-.988-.988" transform="translate(118.933 120.991)" fill="#00b2a8"></path><path id="Path_31" data-name="Path 31" d="M177.77,186.01V160.126a.9.9,0,0,1,.988-.987h3.471a.9.9,0,0,1,.988.987V186.01a.9.9,0,0,1-.988.988h-3.471a.9.9,0,0,1-.988-.988" transform="translate(135.156 120.991)" fill="#00b2a8"></path><path id="Path_32" data-name="Path 32" d="M183.777,177.408V160.128a.893.893,0,0,1,.986-.988h3.514a.893.893,0,0,1,.982.988v17.478c0,3.394,1.225,4.144,3.869,4.144H202c2.642,0,3.829-.75,3.829-4.144V160.128a.893.893,0,0,1,.986-.988h3.549a.9.9,0,0,1,.989.988v17.281c0,5.879-2.843,9.588-9.352,9.588h-8.877c-6.55,0-9.351-3.709-9.351-9.588" transform="translate(139.723 120.992)" fill="#00b2a8"></path><path id="Path_33" data-name="Path 33" d="M202.358,186.01V160.126a.9.9,0,0,1,.988-.987h4.26a1.34,1.34,0,0,1,1.183.671l9.905,16.138,9.865-16.138a1.343,1.343,0,0,1,1.185-.671h4.221a.9.9,0,0,1,.986.987V186.01a.9.9,0,0,1-.986.988h-3.473a.9.9,0,0,1-.986-.988V167.939l-8.562,13.73a1.343,1.343,0,0,1-1.185.672h-2.209a1.343,1.343,0,0,1-1.185-.672l-8.56-13.69V186.01a.9.9,0,0,1-.988.988h-3.471a.9.9,0,0,1-.988-.988" transform="translate(153.85 120.991)" fill="#00b2a8"></path><path id="Path_34" data-name="Path 34" d="M229.3,186.011V160.126a.894.894,0,0,1,.986-.986h14.323c8.048,0,10.85,3.394,10.85,9.983v.868c0,6.393-2.8,9.826-10.85,9.826h-9.824v6.194a.9.9,0,0,1-.988.986h-3.512a.894.894,0,0,1-.986-.986m14.874-11.4c4.066,0,5.8-.868,5.8-4.658v-.827c0-3.985-1.656-4.735-5.8-4.735h-9.389v10.22Z" transform="translate(174.333 120.992)" fill="#00b2a8"></path><path id="Path_35" data-name="Path 35" d="M246.489,186.01V160.126a.9.9,0,0,1,.988-.987h21.581a.9.9,0,0,1,.988.987V163.4a.9.9,0,0,1-.988.988H251.935v6.077h11.086a.892.892,0,0,1,.986.986v2.88a.894.894,0,0,1-.986.988H251.935v6.43h17.122a.9.9,0,0,1,.988.988v3.274a.9.9,0,0,1-.988.988H247.477a.9.9,0,0,1-.988-.988" transform="translate(187.402 120.991)" fill="#00b2a8"></path><path id="Path_36" data-name="Path 36" d="M270.591,186.01V164.427h-8.523a.894.894,0,0,1-.986-.986v-3.315a.894.894,0,0,1,.986-.987H284.6a.9.9,0,0,1,.988.987v3.315a.9.9,0,0,1-.988.986h-8.523V186.01a.894.894,0,0,1-.984.988h-3.512a.9.9,0,0,1-.988-.988" transform="translate(198.497 120.991)" fill="#00b2a8"></path><path id="Path_37" data-name="Path 37" d="M282.4,186.01V160.126a.9.9,0,0,1,.988-.987h20.951a.9.9,0,0,1,.986.987V163.4a.9.9,0,0,1-.986.988H287.843v6.077h10.613a.9.9,0,0,1,.988.986v2.88a.9.9,0,0,1-.988.988H287.843V186.01a.9.9,0,0,1-.988.988h-3.471a.9.9,0,0,1-.988-.988" transform="translate(214.703 120.991)" fill="#00b2a8"></path><path id="Path_38" data-name="Path 38" d="M296.473,177.408v-8.639c0-5.918,2.8-9.629,9.351-9.629h10.139c6.552,0,9.351,3.711,9.351,9.629v8.639c0,5.879-2.8,9.588-9.351,9.588H305.824c-6.55,0-9.351-3.709-9.351-9.588m19.49,4.341c2.644,0,3.867-.75,3.867-4.144v-9.034c0-3.434-1.105-4.182-3.867-4.182H305.824c-2.723,0-3.867.748-3.867,4.182v9.034c0,3.394,1.223,4.144,3.867,4.144Z" transform="translate(225.404 120.992)" fill="#00b2a8"></path><path id="Path_39" data-name="Path 39" d="M315.1,177.408v-8.639c0-5.918,2.8-9.629,9.351-9.629h10.139c6.552,0,9.351,3.711,9.351,9.629v8.639c0,5.879-2.8,9.588-9.351,9.588H324.449c-6.55,0-9.351-3.709-9.351-9.588m19.49,4.341c2.644,0,3.867-.75,3.867-4.144v-9.034c0-3.434-1.105-4.182-3.867-4.182H324.449c-2.723,0-3.867.748-3.867,4.182v9.034c0,3.394,1.223,4.144,3.867,4.144Z" transform="translate(239.565 120.992)" fill="#00b2a8"></path><path id="Path_40" data-name="Path 40" d="M334.015,186.009V160.126a.894.894,0,0,1,.986-.986h16.927c6.511,0,9.312,3.471,9.312,10.456v7.1c0,6.946-2.8,10.3-9.312,10.3H335a.9.9,0,0,1-.986-.988m17.282-4.221c3,0,4.536-.829,4.536-5.17v-6.981c0-4.341-1.459-5.249-4.536-5.249H339.5v17.4Z" transform="translate(253.947 120.992)" fill="#00b2a8"></path></g></svg> 